# xmcd
#
# Track frame offsets: 
#        150
#        32460
#        64855
#        96640
#        135430
#        169390
#        202337
#        238583
#        271186
#
# Disc length: 4033 seconds
#
# Revision: 1
# Processed by: cddbd v1.5.2PL0 Copyright (c) Steve Scherf et al.
# Submitted via: ExactAudioCopy v1.0b3
#
DISCID=830fbf09
DTITLE=DiscoValley Records - Triton
DYEAR=2008
DGENRE=Psychedelic
TTITLE0=Flipknot - Tritone
TTITLE1=Polykaos vs Sillent Horror - 360 Surround
TTITLE2=Detonatik - Allergic Recharge
TTITLE3=Bash - Dark Pampkin
TTITLE4=Fraktal Noise - Recall
TTITLE5=Dark Elf - Time Up
TTITLE6=Za7zay - Darkshina Murthi
TTITLE7=Claw - Fantaze
TTITLE8=DaRkShiRe - Wellcome To The Jungle
EXTD=
EXTT0=
EXTT1=
EXTT2=
EXTT3=
EXTT4=
EXTT5=
EXTT6=
EXTT7=
EXTT8=
PLAYORDER=
